# xmcd
#
# Track frame offsets: 
#        150
#        1236
#        16653
#        39529
#        55496
#        76566
#        86285
#        103875
#        132463
#        150802
#        169041
#        178654
#        196762
#        216097
#        241923
#        263327
#
# Disc length: 3918 seconds
#
# Revision: 4
# Processed by: cddbd v1.5.2PL0 Copyright (c) Steve Scherf et al.
# Submitted via: ExactAudioCopy v1.0b4
#
DISCID=b30f4c10
DTITLE=Various Artist - American Made World Played
DYEAR=2005
DGENRE=Rock
TTITLE0=Les Paul and Friends - Introduction
TTITLE1=Sting and Joss Stone - Love Sneakin' Up On You
TTITLE2=Kenny Wayne Shepard, Edgar Winter and Noah Hunt - Rock and Roll, H
TTITLE2=oochie Koo
TTITLE3=Sam Cooke and Eric Clapton - Somebody Ease My Troublin' Mind
TTITLE4=Peter Frampton - So Into You
TTITLE5=Les Paul and Alsou - How High The Moon
TTITLE6=Billy Gibbons - Bad Case Of Lovin' You
TTITLE7=Neal Schon and Beth Hart - I Wanna Know You
TTITLE8=Sam Cooke and Jeff Beck - (Ain't That) Good News
TTITLE9=Richie Sambora - Let Me Roll It
TTITLE10=Les Paul - Caravan
TTITLE11=Buddy Guy, Keith Richards and Rick Derringer - Good Morning, Li
TTITLE11=ttle Schoolgirl
TTITLE12=Johnny Rzeznik - All I Want Is You
TTITLE13=Les Paul and Friends - 69 Freedom Special
TTITLE14=Steve Miller - Fly Like An Eagle
TTITLE15=Joe Perry, Mick Hucknall and Kenny Olsen - I Love You More Than
TTITLE15=You' ll Ever Know
EXTD=
EXTT0=
EXTT1=
EXTT2=
EXTT3=
EXTT4=
EXTT5=
EXTT6=
EXTT7=
EXTT8=
EXTT9=
EXTT10=
EXTT11=
EXTT12=
EXTT13=
EXTT14=
EXTT15=
PLAYORDER=
